<svg width="22" height="21" viewBox="0 0 22 21" fill="none" xmlns="http://www.w3.org/2000/svg">
<path d="M11.5487 5.87081C11.8764 5.54314 11.8764 5.01189 11.5487 4.68423C11.221 4.35656 10.6898 4.35656 10.3621 4.68423L5.32785 9.71847C5.01021 10.0361 4.9991 10.5476 5.30264 10.8787L9.91737 15.913C10.2305 16.2546 10.7612 16.2776 11.1028 15.9645C11.4444 15.6514 11.4675 15.1206 11.1544 14.7791L7.08249 10.337L11.5487 5.87081Z" fill="#D44339"/>
<path opacity="0.3" d="M17.4221 5.87081C17.7498 5.54314 17.7498 5.01189 17.4221 4.68423C17.0945 4.35656 16.5632 4.35656 16.2356 4.68423L11.2013 9.71847C10.8837 10.0361 10.8726 10.5476 11.1761 10.8787L15.7908 15.913C16.104 16.2546 16.6347 16.2776 16.9763 15.9645C17.3179 15.6514 17.341 15.1206 17.0278 14.7791L12.956 10.337L17.4221 5.87081Z" fill="#D44339"/>
</svg>
