<svg width="21" height="21" viewBox="0 0 21 21" fill="none" xmlns="http://www.w3.org/2000/svg">
<path d="M9.47524 14.9341C9.14758 15.2618 9.14758 15.793 9.47524 16.1207C9.80291 16.4484 10.3342 16.4484 10.6618 16.1207L15.6961 11.0865C16.0137 10.7688 16.0248 10.2573 15.7213 9.92621L11.1066 4.89196C10.7934 4.55037 10.2627 4.52729 9.92109 4.84042C9.5795 5.15354 9.55643 5.68429 9.86955 6.02588L13.9414 10.4679L9.47524 14.9341Z" fill="#D44339"/>
<path opacity="0.3" d="M3.60227 14.9341C3.2746 15.2618 3.2746 15.793 3.60227 16.1207C3.92993 16.4484 4.46119 16.4484 4.78885 16.1207L9.8231 11.0865C10.1407 10.7688 10.1519 10.2573 9.84831 9.92621L5.23358 4.89196C4.92046 4.55037 4.38971 4.52729 4.04812 4.84042C3.70653 5.15354 3.68345 5.68429 3.99658 6.02588L8.06846 10.4679L3.60227 14.9341Z" fill="#D44339"/>
</svg>
