<svg width="19" height="18" viewBox="0 0 19 18" fill="none" xmlns="http://www.w3.org/2000/svg">
<path d="M4.52344 6V15C4.52344 15.8284 5.19501 16.5 6.02344 16.5H12.0234C12.8519 16.5 13.5234 15.8284 13.5234 15V6H4.52344Z" fill="#7B4884"/>
<path opacity="0.3" fill-rule="evenodd" clip-rule="evenodd" d="M10.5234 3.375V3.25C10.5234 2.69772 10.0757 2.25 9.52344 2.25H8.52344C7.97115 2.25 7.52344 2.69772 7.52344 3.25V3.375H4.27344C3.9973 3.375 3.77344 3.59886 3.77344 3.875V4C3.77344 4.27614 3.9973 4.5 4.27344 4.5H13.7734C14.0496 4.5 14.2734 4.27614 14.2734 4V3.875C14.2734 3.59886 14.0496 3.375 13.7734 3.375H10.5234Z" fill="#7B4884"/>
</svg>
