<svg width="24" height="25" viewBox="0 0 24 25" fill="none" xmlns="http://www.w3.org/2000/svg">
<rect x="4" y="4.98633" width="7" height="7" rx="1.5" fill="#D44339"/>
<path opacity="0.3" fill-rule="evenodd" clip-rule="evenodd" d="M13 6.48633C13 5.6579 13.6716 4.98633 14.5 4.98633H18.5C19.3284 4.98633 20 5.6579 20 6.48633V10.4863C20 11.3148 19.3284 11.9863 18.5 11.9863H14.5C13.6716 11.9863 13 11.3148 13 10.4863V6.48633ZM4 15.4863C4 14.6579 4.67157 13.9863 5.5 13.9863H9.5C10.3284 13.9863 11 14.6579 11 15.4863V19.4863C11 20.3148 10.3284 20.9863 9.5 20.9863H5.5C4.67157 20.9863 4 20.3148 4 19.4863V15.4863ZM14.5 13.9863C13.6716 13.9863 13 14.6579 13 15.4863V19.4863C13 20.3148 13.6716 20.9863 14.5 20.9863H18.5C19.3284 20.9863 20 20.3148 20 19.4863V15.4863C20 14.6579 19.3284 13.9863 18.5 13.9863H14.5Z" fill="#D44339"/>
</svg>
