<svg width="17" height="16" viewBox="0 0 17 16" fill="none" xmlns="http://www.w3.org/2000/svg">
<path d="M14.1618 2.98637C14.7392 3.56378 14.7486 4.49698 14.1831 5.08597L8.76617 10.7271C8.49088 11.0137 8.11306 11.1795 7.71569 11.1878L5.44036 11.2355L5.48842 8.94497C5.49657 8.55664 5.65503 8.1866 5.93047 7.91274L11.4675 2.40735C12.0538 1.82442 13.0012 1.82578 13.5858 2.41038L14.1618 2.98637Z" fill="#7B4884"/>
<path opacity="0.3" d="M8.6236 1.33325C8.99179 1.33325 9.29027 1.63173 9.29027 1.99992C9.29027 2.36811 8.99179 2.66659 8.6236 2.66659H4.0236C3.28722 2.66659 2.69027 3.26354 2.69027 3.99992V11.9999C2.69027 12.7363 3.28722 13.3333 4.0236 13.3333H12.0236C12.76 13.3333 13.3569 12.7363 13.3569 11.9999V8.66659C13.3569 8.2984 13.6554 7.99992 14.0236 7.99992C14.3918 7.99992 14.6903 8.2984 14.6903 8.66659V11.9999C14.6903 13.4727 13.4964 14.6666 12.0236 14.6666H4.0236C2.55084 14.6666 1.35693 13.4727 1.35693 11.9999V3.99992C1.35693 2.52716 2.55084 1.33325 4.0236 1.33325H8.6236Z" fill="#7B4884"/>
</svg>
